<?xml version="1.0" encoding="UTF-8" standalone="no"?>
<!DOCTYPE svg PUBLIC "-//W3C//DTD SVG 1.1//EN"
 "http://www.w3.org/Graphics/SVG/1.1/DTD/svg11.dtd">
<!-- Generated by graphviz version 2.28.0 (20110507.0327)
 -->
<!-- Title: G Pages: 1 -->
<svg width="304pt" height="616pt"
 viewBox="0.00 0.00 304.00 616.00" xmlns="http://www.w3.org/2000/svg" xmlns:xlink="http://www.w3.org/1999/xlink">
<g id="graph1" class="graph" transform="scale(1 1) rotate(0) translate(4 612)">
<title>G</title>
<polygon fill="white" stroke="white" points="-4,5 -4,-612 301,-612 301,5 -4,5"/>
<g id="graph2" class="cluster"><title>cluster_</title>
<polyline fill="none" stroke="gray" points="146,-8 276,-8 "/>
<path fill="none" stroke="gray" d="M276,-8C282,-8 288,-14 288,-20"/>
<polyline fill="none" stroke="gray" points="288,-20 288,-588 "/>
<path fill="none" stroke="gray" d="M288,-588C288,-594 282,-600 276,-600"/>
<polyline fill="none" stroke="gray" points="276,-600 146,-600 "/>
<path fill="none" stroke="gray" d="M146,-600C140,-600 134,-594 134,-588"/>
<polyline fill="none" stroke="gray" points="134,-588 134,-20 "/>
<path fill="none" stroke="gray" d="M134,-20C134,-14 140,-8 146,-8"/>
</g>
<!-- \\AuderoWavExtractor -->
<g id="node2" class="node"><title>\\AuderoWavExtractor</title>
<a xlink:href="AuderoWavExtractor.AuderoWavExtractor.html" xlink:title="AuderoWavExtractor" target="_parent">
<polygon fill="none" stroke="black" points="280,-592 142,-592 142,-556 280,-556 280,-592"/>
<text text-anchor="middle" x="211" y="-571.2" font-family="Courier,monospace" font-size="11.00">AuderoWavExtractor</text>
</a>
</g>
<!-- \\Converter -->
<g id="node3" class="node"><title>\\Converter</title>
<a xlink:href="AuderoWavExtractor.Utility.Converter.html" xlink:title="Converter" target="_parent">
<polygon fill="none" stroke="black" points="249.5,-538 172.5,-538 172.5,-502 249.5,-502 249.5,-538"/>
<text text-anchor="middle" x="211" y="-517.2" font-family="Courier,monospace" font-size="11.00">Converter</text>
</a>
</g>
<!-- \\Chunk -->
<g id="node4" class="node"><title>\\Chunk</title>
<a xlink:href="AuderoWavExtractor.Wav.Chunk.Chunk.html" xlink:title="Chunk" target="_parent">
<polygon fill="none" stroke="black" points="238,-484 184,-484 184,-448 238,-448 238,-484"/>
<text text-anchor="middle" x="211" y="-463.2" font-family="Courier,monospace" font-size="11.00">Chunk</text>
</a>
</g>
<!-- \\ChunkField -->
<g id="node5" class="node"><title>\\ChunkField</title>
<a xlink:href="AuderoWavExtractor.Wav.Chunk.ChunkField.html" xlink:title="ChunkField" target="_parent">
<polygon fill="none" stroke="black" points="253,-430 169,-430 169,-394 253,-394 253,-430"/>
<text text-anchor="middle" x="211" y="-409.2" font-family="Courier,monospace" font-size="11.00">ChunkField</text>
</a>
</g>
<!-- \\Cue -->
<g id="node6" class="node"><title>\\Cue</title>
<a xlink:href="AuderoWavExtractor.Wav.Chunk.Cue.html" xlink:title="Cue" target="_parent">
<polygon fill="none" stroke="black" points="238,-376 184,-376 184,-340 238,-340 238,-376"/>
<text text-anchor="middle" x="211" y="-355.2" font-family="Courier,monospace" font-size="11.00">Cue</text>
</a>
</g>
<!-- Chunk -->
<g id="node14" class="node"><title>Chunk</title>
<ellipse fill="none" stroke="black" cx="35" cy="-196" rx="34.394" ry="18"/>
<text text-anchor="middle" x="35" y="-192.3" font-family="Times New Roman,serif" font-size="14.00" fill="gray">Chunk</text>
</g>
<!-- \\Cue&#45;&gt;Chunk -->
<g id="edge3" class="edge"><title>\\Cue&#45;&gt;Chunk</title>
<path fill="none" stroke="black" d="M183.843,-352.832C168.246,-348.798 148.69,-341.986 134,-331 95.073,-301.889 65.0651,-252.923 49.0132,-222.648"/>
<polygon fill="none" stroke="black" points="51.9986,-220.802 44.2983,-213.525 45.7799,-224.015 51.9986,-220.802"/>
</g>
<!-- \\CuePoint -->
<g id="node7" class="node"><title>\\CuePoint</title>
<a xlink:href="AuderoWavExtractor.Wav.Chunk.CuePoint.html" xlink:title="CuePoint" target="_parent">
<polygon fill="none" stroke="black" points="246.5,-322 175.5,-322 175.5,-286 246.5,-286 246.5,-322"/>
<text text-anchor="middle" x="211" y="-301.2" font-family="Courier,monospace" font-size="11.00">CuePoint</text>
</a>
</g>
<!-- \\Data -->
<g id="node8" class="node"><title>\\Data</title>
<a xlink:href="AuderoWavExtractor.Wav.Chunk.Data.html" xlink:title="Data" target="_parent">
<polygon fill="none" stroke="black" points="238,-268 184,-268 184,-232 238,-232 238,-268"/>
<text text-anchor="middle" x="211" y="-247.2" font-family="Courier,monospace" font-size="11.00">Data</text>
</a>
</g>
<!-- \\Data&#45;&gt;Chunk -->
<g id="edge5" class="edge"><title>\\Data&#45;&gt;Chunk</title>
<path fill="none" stroke="black" d="M183.95,-241.916C155.082,-232.957 108.221,-218.414 74.98,-208.097"/>
<polygon fill="none" stroke="black" points="75.724,-204.664 65.1359,-205.042 73.6492,-211.349 75.724,-204.664"/>
</g>
<!-- \\Fact -->
<g id="node9" class="node"><title>\\Fact</title>
<a xlink:href="AuderoWavExtractor.Wav.Chunk.Fact.html" xlink:title="Fact" target="_parent">
<polygon fill="none" stroke="black" points="238,-214 184,-214 184,-178 238,-178 238,-214"/>
<text text-anchor="middle" x="211" y="-193.2" font-family="Courier,monospace" font-size="11.00">Fact</text>
</a>
</g>
<!-- \\Fact&#45;&gt;Chunk -->
<g id="edge7" class="edge"><title>\\Fact&#45;&gt;Chunk</title>
<path fill="none" stroke="black" d="M183.95,-196C156.49,-196 112.749,-196 79.9361,-196"/>
<polygon fill="none" stroke="black" points="79.7013,-192.5 69.7012,-196 79.7012,-199.5 79.7013,-192.5"/>
</g>
<!-- \\Fmt -->
<g id="node10" class="node"><title>\\Fmt</title>
<a xlink:href="AuderoWavExtractor.Wav.Chunk.Fmt.html" xlink:title="Fmt" target="_parent">
<polygon fill="none" stroke="black" points="238,-160 184,-160 184,-124 238,-124 238,-160"/>
<text text-anchor="middle" x="211" y="-139.2" font-family="Courier,monospace" font-size="11.00">Fmt</text>
</a>
</g>
<!-- \\Fmt&#45;&gt;Chunk -->
<g id="edge9" class="edge"><title>\\Fmt&#45;&gt;Chunk</title>
<path fill="none" stroke="black" d="M183.95,-150.084C155.082,-159.043 108.221,-173.586 74.98,-183.903"/>
<polygon fill="none" stroke="black" points="73.6492,-180.651 65.1359,-186.958 75.724,-187.336 73.6492,-180.651"/>
</g>
<!-- \\Riff -->
<g id="node11" class="node"><title>\\Riff</title>
<a xlink:href="AuderoWavExtractor.Wav.Chunk.Riff.html" xlink:title="Riff" target="_parent">
<polygon fill="none" stroke="black" points="238,-106 184,-106 184,-70 238,-70 238,-106"/>
<text text-anchor="middle" x="211" y="-85.2" font-family="Courier,monospace" font-size="11.00">Riff</text>
</a>
</g>
<!-- \\Riff&#45;&gt;Chunk -->
<g id="edge11" class="edge"><title>\\Riff&#45;&gt;Chunk</title>
<path fill="none" stroke="black" d="M183.692,-94.8671C168.589,-99.4062 149.589,-106.156 134,-115 105.946,-130.915 77.9884,-155.053 59.158,-172.84"/>
<polygon fill="none" stroke="black" points="56.4588,-170.58 51.6729,-180.032 61.3087,-175.628 56.4588,-170.58"/>
</g>
<!-- \\Wav -->
<g id="node12" class="node"><title>\\Wav</title>
<a xlink:href="AuderoWavExtractor.Wav.Wav.html" xlink:title="Wav" target="_parent">
<polygon fill="none" stroke="black" points="238,-52 184,-52 184,-16 238,-16 238,-52"/>
<text text-anchor="middle" x="211" y="-31.2" font-family="Courier,monospace" font-size="11.00">Wav</text>
</a>
</g>
</g>
</svg>
