<?xml version="1.0" encoding="UTF-8" standalone="no"?>
<!DOCTYPE svg PUBLIC "-//W3C//DTD SVG 1.1//EN"
 "http://www.w3.org/Graphics/SVG/1.1/DTD/svg11.dtd">
<!-- Generated by graphviz version 2.28.0 (20110507.0327)
 -->
<!-- Title: G Pages: 1 -->
<svg width="328pt" height="780pt"
 viewBox="0.00 0.00 328.00 780.00" xmlns="http://www.w3.org/2000/svg" xmlns:xlink="http://www.w3.org/1999/xlink">
<g id="graph1" class="graph" transform="scale(1 1) rotate(0) translate(4 776)">
<title>G</title>
<polygon fill="white" stroke="white" points="-4,5 -4,-776 325,-776 325,5 -4,5"/>
<g id="graph2" class="cluster"><title>cluster_Audero</title>
<polyline fill="none" stroke="gray" points="20,-8 300,-8 "/>
<path fill="none" stroke="gray" d="M300,-8C306,-8 312,-14 312,-20"/>
<polyline fill="none" stroke="gray" points="312,-20 312,-752 "/>
<path fill="none" stroke="gray" d="M312,-752C312,-758 306,-764 300,-764"/>
<polyline fill="none" stroke="gray" points="300,-764 20,-764 "/>
<path fill="none" stroke="gray" d="M20,-764C14,-764 8,-758 8,-752"/>
<polyline fill="none" stroke="gray" points="8,-752 8,-20 "/>
<path fill="none" stroke="gray" d="M8,-20C8,-14 14,-8 20,-8"/>
<text text-anchor="middle" x="160" y="-751.2" font-family="Times New Roman,serif" font-size="11.00" fill="gray">Audero</text>
</g>
<g id="graph3" class="cluster"><title>cluster_Audero\Loader</title>
<polyline fill="none" stroke="gray" points="189,-664 265,-664 "/>
<path fill="none" stroke="gray" d="M265,-664C271,-664 277,-670 277,-676"/>
<polyline fill="none" stroke="gray" points="277,-676 277,-724 "/>
<path fill="none" stroke="gray" d="M277,-724C277,-730 271,-736 265,-736"/>
<polyline fill="none" stroke="gray" points="265,-736 189,-736 "/>
<path fill="none" stroke="gray" d="M189,-736C183,-736 177,-730 177,-724"/>
<polyline fill="none" stroke="gray" points="177,-724 177,-676 "/>
<path fill="none" stroke="gray" d="M177,-676C177,-670 183,-664 189,-664"/>
<text text-anchor="middle" x="227" y="-723.2" font-family="Times New Roman,serif" font-size="11.00" fill="gray">Loader</text>
</g>
<g id="graph4" class="cluster"><title>cluster_Audero\Utility</title>
<polyline fill="none" stroke="gray" points="192,-584 262,-584 "/>
<path fill="none" stroke="gray" d="M262,-584C268,-584 274,-590 274,-596"/>
<polyline fill="none" stroke="gray" points="274,-596 274,-644 "/>
<path fill="none" stroke="gray" d="M274,-644C274,-650 268,-656 262,-656"/>
<polyline fill="none" stroke="gray" points="262,-656 192,-656 "/>
<path fill="none" stroke="gray" d="M192,-656C186,-656 180,-650 180,-644"/>
<polyline fill="none" stroke="gray" points="180,-644 180,-596 "/>
<path fill="none" stroke="gray" d="M180,-596C180,-590 186,-584 192,-584"/>
<text text-anchor="middle" x="227" y="-643.2" font-family="Times New Roman,serif" font-size="11.00" fill="gray">Utility</text>
</g>
<g id="graph5" class="cluster"><title>cluster_Audero\WavExtractor</title>
<polyline fill="none" stroke="gray" points="28,-16 292,-16 "/>
<path fill="none" stroke="gray" d="M292,-16C298,-16 304,-22 304,-28"/>
<polyline fill="none" stroke="gray" points="304,-28 304,-564 "/>
<path fill="none" stroke="gray" d="M304,-564C304,-570 298,-576 292,-576"/>
<polyline fill="none" stroke="gray" points="292,-576 28,-576 "/>
<path fill="none" stroke="gray" d="M28,-576C22,-576 16,-570 16,-564"/>
<polyline fill="none" stroke="gray" points="16,-564 16,-28 "/>
<path fill="none" stroke="gray" d="M16,-28C16,-22 22,-16 28,-16"/>
<text text-anchor="middle" x="160" y="-563.2" font-family="Times New Roman,serif" font-size="11.00" fill="gray">WavExtractor</text>
</g>
<g id="graph6" class="cluster"><title>cluster_Audero\WavExtractor\Wav</title>
<polyline fill="none" stroke="gray" points="36,-70 267,-70 "/>
<path fill="none" stroke="gray" d="M267,-70C273,-70 279,-76 279,-82"/>
<polyline fill="none" stroke="gray" points="279,-82 279,-536 "/>
<path fill="none" stroke="gray" d="M279,-536C279,-542 273,-548 267,-548"/>
<polyline fill="none" stroke="gray" points="267,-548 36,-548 "/>
<path fill="none" stroke="gray" d="M36,-548C30,-548 24,-542 24,-536"/>
<polyline fill="none" stroke="gray" points="24,-536 24,-82 "/>
<path fill="none" stroke="gray" d="M24,-82C24,-76 30,-70 36,-70"/>
<text text-anchor="middle" x="151.5" y="-535.2" font-family="Times New Roman,serif" font-size="11.00" fill="gray">Wav</text>
</g>
<g id="graph7" class="cluster"><title>cluster_Audero\WavExtractor\Wav\Chunk</title>
<polyline fill="none" stroke="gray" points="195,-178 259,-178 "/>
<path fill="none" stroke="gray" d="M259,-178C265,-178 271,-184 271,-190"/>
<polyline fill="none" stroke="gray" points="271,-190 271,-508 "/>
<path fill="none" stroke="gray" d="M271,-508C271,-514 265,-520 259,-520"/>
<polyline fill="none" stroke="gray" points="259,-520 195,-520 "/>
<path fill="none" stroke="gray" d="M195,-520C189,-520 183,-514 183,-508"/>
<polyline fill="none" stroke="gray" points="183,-508 183,-190 "/>
<path fill="none" stroke="gray" d="M183,-190C183,-184 189,-178 195,-178"/>
<text text-anchor="middle" x="227" y="-507.2" font-family="Times New Roman,serif" font-size="11.00" fill="gray">Chunk</text>
</g>
<!-- \\Audero\\Loader\\AutoLoader -->
<g id="node3" class="node"><title>\\Audero\\Loader\\AutoLoader</title>
<a xlink:href="Loader.AutoLoader.html" xlink:title="AutoLoader" target="_parent">
<polygon fill="none" stroke="black" points="269,-708 185,-708 185,-672 269,-672 269,-708"/>
<text text-anchor="middle" x="227" y="-687.2" font-family="Courier,monospace" font-size="11.00">AutoLoader</text>
</a>
</g>
<!-- \\Audero\\Utility\\Converter -->
<g id="node5" class="node"><title>\\Audero\\Utility\\Converter</title>
<a xlink:href="Utility.Converter.html" xlink:title="Converter" target="_parent">
<polygon fill="none" stroke="black" points="265.5,-628 188.5,-628 188.5,-592 265.5,-592 265.5,-628"/>
<text text-anchor="middle" x="227" y="-607.2" font-family="Courier,monospace" font-size="11.00">Converter</text>
</a>
</g>
<!-- \\Audero\\WavExtractor\\Wav\\Chunk\\Cue -->
<g id="node9" class="node"><title>\\Audero\\WavExtractor\\Wav\\Chunk\\Cue</title>
<a xlink:href="WavExtractor.Wav.Chunk.Cue.html" xlink:title="Cue" target="_parent">
<polygon fill="none" stroke="black" points="254,-492 200,-492 200,-456 254,-456 254,-492"/>
<text text-anchor="middle" x="227" y="-471.2" font-family="Courier,monospace" font-size="11.00">Cue</text>
</a>
</g>
<!-- \\Audero\\WavExtractor\\Wav\\Chunk -->
<g id="node15" class="node"><title>\\Audero\\WavExtractor\\Wav\\Chunk</title>
<a xlink:href="WavExtractor.Wav.Chunk.html" xlink:title="Chunk" target="_parent">
<polygon fill="none" stroke="black" points="86,-330 32,-330 32,-294 86,-294 86,-330"/>
<text text-anchor="middle" x="59" y="-309.2" font-family="Courier,monospace" font-size="11.00">Chunk</text>
</a>
</g>
<!-- \\Audero\\WavExtractor\\Wav\\Chunk\\Cue&#45;&gt;\\Audero\\WavExtractor\\Wav\\Chunk -->
<g id="edge12" class="edge"><title>\\Audero\\WavExtractor\\Wav\\Chunk\\Cue&#45;&gt;\\Audero\\WavExtractor\\Wav\\Chunk</title>
<path fill="none" stroke="black" d="M200,-467.47C186.518,-463.192 170.338,-456.584 158,-447 120.025,-417.502 90.0865,-369.481 73.7335,-339.372"/>
<polygon fill="none" stroke="black" points="76.6852,-337.467 68.9085,-330.272 70.5007,-340.746 76.6852,-337.467"/>
</g>
<!-- \\Audero\\WavExtractor\\Wav\\Chunk\\CuePoint -->
<g id="node10" class="node"><title>\\Audero\\WavExtractor\\Wav\\Chunk\\CuePoint</title>
<a xlink:href="WavExtractor.Wav.Chunk.CuePoint.html" xlink:title="CuePoint" target="_parent">
<polygon fill="none" stroke="black" points="262.5,-438 191.5,-438 191.5,-402 262.5,-402 262.5,-438"/>
<text text-anchor="middle" x="227" y="-417.2" font-family="Courier,monospace" font-size="11.00">CuePoint</text>
</a>
</g>
<!-- \\Audero\\WavExtractor\\Wav\\Chunk\\Data -->
<g id="node11" class="node"><title>\\Audero\\WavExtractor\\Wav\\Chunk\\Data</title>
<a xlink:href="WavExtractor.Wav.Chunk.Data.html" xlink:title="Data" target="_parent">
<polygon fill="none" stroke="black" points="254,-384 200,-384 200,-348 254,-348 254,-384"/>
<text text-anchor="middle" x="227" y="-363.2" font-family="Courier,monospace" font-size="11.00">Data</text>
</a>
</g>
<!-- \\Audero\\WavExtractor\\Wav\\Chunk\\Data&#45;&gt;\\Audero\\WavExtractor\\Wav\\Chunk -->
<g id="edge14" class="edge"><title>\\Audero\\WavExtractor\\Wav\\Chunk\\Data&#45;&gt;\\Audero\\WavExtractor\\Wav\\Chunk</title>
<path fill="none" stroke="black" d="M199.697,-357.444C171.649,-348.32 127.056,-333.813 95.8158,-323.651"/>
<polygon fill="none" stroke="black" points="96.7724,-320.282 86.1801,-320.516 94.6069,-326.938 96.7724,-320.282"/>
</g>
<!-- \\Audero\\WavExtractor\\Wav\\Chunk\\Fact -->
<g id="node12" class="node"><title>\\Audero\\WavExtractor\\Wav\\Chunk\\Fact</title>
<a xlink:href="WavExtractor.Wav.Chunk.Fact.html" xlink:title="Fact" target="_parent">
<polygon fill="none" stroke="black" points="254,-330 200,-330 200,-294 254,-294 254,-330"/>
<text text-anchor="middle" x="227" y="-309.2" font-family="Courier,monospace" font-size="11.00">Fact</text>
</a>
</g>
<!-- \\Audero\\WavExtractor\\Wav\\Chunk\\Fact&#45;&gt;\\Audero\\WavExtractor\\Wav\\Chunk -->
<g id="edge16" class="edge"><title>\\Audero\\WavExtractor\\Wav\\Chunk\\Fact&#45;&gt;\\Audero\\WavExtractor\\Wav\\Chunk</title>
<path fill="none" stroke="black" d="M199.697,-312C171.771,-312 127.441,-312 96.2223,-312"/>
<polygon fill="none" stroke="black" points="96.1802,-308.5 86.1801,-312 96.1801,-315.5 96.1802,-308.5"/>
</g>
<!-- \\Audero\\WavExtractor\\Wav\\Chunk\\Fmt -->
<g id="node13" class="node"><title>\\Audero\\WavExtractor\\Wav\\Chunk\\Fmt</title>
<a xlink:href="WavExtractor.Wav.Chunk.Fmt.html" xlink:title="Fmt" target="_parent">
<polygon fill="none" stroke="black" points="254,-276 200,-276 200,-240 254,-240 254,-276"/>
<text text-anchor="middle" x="227" y="-255.2" font-family="Courier,monospace" font-size="11.00">Fmt</text>
</a>
</g>
<!-- \\Audero\\WavExtractor\\Wav\\Chunk\\Fmt&#45;&gt;\\Audero\\WavExtractor\\Wav\\Chunk -->
<g id="edge18" class="edge"><title>\\Audero\\WavExtractor\\Wav\\Chunk\\Fmt&#45;&gt;\\Audero\\WavExtractor\\Wav\\Chunk</title>
<path fill="none" stroke="black" d="M199.697,-266.556C171.649,-275.68 127.056,-290.187 95.8158,-300.349"/>
<polygon fill="none" stroke="black" points="94.6069,-297.062 86.1801,-303.484 96.7724,-303.718 94.6069,-297.062"/>
</g>
<!-- \\Audero\\WavExtractor\\Wav\\Chunk\\Riff -->
<g id="node14" class="node"><title>\\Audero\\WavExtractor\\Wav\\Chunk\\Riff</title>
<a xlink:href="WavExtractor.Wav.Chunk.Riff.html" xlink:title="Riff" target="_parent">
<polygon fill="none" stroke="black" points="254,-222 200,-222 200,-186 254,-186 254,-222"/>
<text text-anchor="middle" x="227" y="-201.2" font-family="Courier,monospace" font-size="11.00">Riff</text>
</a>
</g>
<!-- \\Audero\\WavExtractor\\Wav\\Chunk\\Riff&#45;&gt;\\Audero\\WavExtractor\\Wav\\Chunk -->
<g id="edge20" class="edge"><title>\\Audero\\WavExtractor\\Wav\\Chunk\\Riff&#45;&gt;\\Audero\\WavExtractor\\Wav\\Chunk</title>
<path fill="none" stroke="black" d="M199.923,-212.192C186.879,-216.82 171.118,-223.237 158,-231 131.405,-246.738 104.589,-269.487 85.748,-286.873"/>
<polygon fill="none" stroke="black" points="83.0893,-284.567 78.1853,-293.959 87.8756,-289.675 83.0893,-284.567"/>
</g>
<!-- \\Audero\\WavExtractor\\Wav\\ChunkField -->
<g id="node16" class="node"><title>\\Audero\\WavExtractor\\Wav\\ChunkField</title>
<a xlink:href="WavExtractor.Wav.ChunkField.html" xlink:title="ChunkField" target="_parent">
<polygon fill="none" stroke="black" points="269,-168 185,-168 185,-132 269,-132 269,-168"/>
<text text-anchor="middle" x="227" y="-147.2" font-family="Courier,monospace" font-size="11.00">ChunkField</text>
</a>
</g>
<!-- \\Audero\\WavExtractor\\Wav\\Wav -->
<g id="node17" class="node"><title>\\Audero\\WavExtractor\\Wav\\Wav</title>
<a xlink:href="WavExtractor.Wav.Wav.html" xlink:title="Wav" target="_parent">
<polygon fill="none" stroke="black" points="254,-114 200,-114 200,-78 254,-78 254,-114"/>
<text text-anchor="middle" x="227" y="-93.2" font-family="Courier,monospace" font-size="11.00">Wav</text>
</a>
</g>
<!-- \\Audero\\WavExtractor\\AuderoWavExtractor -->
<g id="node19" class="node"><title>\\Audero\\WavExtractor\\AuderoWavExtractor</title>
<a xlink:href="WavExtractor.AuderoWavExtractor.html" xlink:title="AuderoWavExtractor" target="_parent">
<polygon fill="none" stroke="black" points="296,-60 158,-60 158,-24 296,-24 296,-60"/>
<text text-anchor="middle" x="227" y="-39.2" font-family="Courier,monospace" font-size="11.00">AuderoWavExtractor</text>
</a>
</g>
</g>
</svg>
